<svg id="图层_1" data-name="图层 1" xmlns="http://www.w3.org/2000/svg" viewBox="0 0 152.98 33.82"><defs><style>.cls-1{isolation:isolate;}.cls-2{fill:#574f60;}.cls-3{fill:#00cc95;}</style></defs><title>svg-01</title><g id="ICOROOT" class="cls-1"><g class="cls-1"><path class="cls-2" d="M0,22V6.67H4V22Z" transform="translate(0 -6.4)"/><path class="cls-2" d="M9.94,15.14c0,2.56,1,3.83,2.71,3.83a2.46,2.46,0,0,0,2.49-2.73H19v.53c0,3.14-2.5,5.5-6.38,5.5-4.32,0-6.76-2.73-6.76-7.15V13.58c0-4.44,2.45-7.18,6.76-7.18C16.43,6.4,19,8.75,19,12v.5H15.14a2.52,2.52,0,0,0-2.52-2.8C11,9.7,9.94,11,9.94,13.58Z" transform="translate(0 -6.4)"/><path class="cls-2" d="M20.08,13.53c0-4.36,2.53-7.13,7-7.13s7,2.8,7,7.13v1.68c0,4.31-2.5,7.05-7,7.05s-7-2.74-7-7.05Zm4.11,1.71c0,2.52,1.13,3.8,2.85,3.8s2.84-1.28,2.84-3.8V13.48c0-2.52-1.13-3.83-2.84-3.83S24.19,11,24.19,13.48Z" transform="translate(0 -6.4)"/></g><g class="cls-1"><path class="cls-3" d="M48.17,11.77a4.7,4.7,0,0,1-2.73,4.33l3,5.9H44l-2.56-5.36H39.68V22h-4V6.67h6.66C46.25,6.67,48.17,8.79,48.17,11.77Zm-6.41,2.09A2,2,0,0,0,44,11.78a2.06,2.06,0,0,0-2.25-2.15h-2.1v4.22Z" transform="translate(0 -6.4)"/><path class="cls-3" d="M49.32,13.53c0-4.36,2.53-7.13,7-7.13s7,2.8,7,7.13v1.68c0,4.31-2.5,7.05-7,7.05s-7-2.74-7-7.05Zm4.11,1.71c0,2.52,1.13,3.8,2.85,3.8s2.84-1.28,2.84-3.8V13.48c0-2.52-1.13-3.83-2.84-3.83S53.43,11,53.43,13.48Z" transform="translate(0 -6.4)"/><path class="cls-3" d="M64.41,13.53c0-4.36,2.53-7.13,7-7.13s7,2.8,7,7.13v1.68c0,4.31-2.5,7.05-7,7.05s-7-2.74-7-7.05Zm4.11,1.71c0,2.52,1.13,3.8,2.85,3.8s2.84-1.28,2.84-3.8V13.48c0-2.52-1.13-3.83-2.84-3.83S68.52,11,68.52,13.48Z" transform="translate(0 -6.4)"/><path class="cls-3" d="M82.81,22V9.94H78.72V6.67h12.2V9.94H86.83V22Z" transform="translate(0 -6.4)"/></g></g><g id="独立的第三方数字资产分析平台" class="cls-1"><g class="cls-1"><path class="cls-2" d="M4.07,30.63a10.15,10.15,0,0,1-1.34,1.71,3.53,3.53,0,0,1,.17.37,12.51,12.51,0,0,1,.53,3.8c0,1.78-.22,2.85-.66,3.22A1.79,1.79,0,0,1,1.71,40H.8L.5,39a8,8,0,0,0,1,.07.81.81,0,0,0,.6-.18,5.07,5.07,0,0,0,.34-2.46c0-.33,0-.63,0-.91a8.56,8.56,0,0,1-1.82,1.8L0,36.46a7.51,7.51,0,0,0,2.26-2.27A7.38,7.38,0,0,0,2,33.14l0-.1c-.4.31-.86.62-1.36.94L0,33.06a7.43,7.43,0,0,0,1.45-.94A6.12,6.12,0,0,0,.32,30.81l.81-.64A9.8,9.8,0,0,1,2.2,31.43a10.9,10.9,0,0,0,1-1.34Zm2.12,1.12V30h1v1.73H9.43v4.63H7.25v2.18c.46-.07.89-.14,1.29-.22-.13-.46-.26-.9-.42-1.32L9,36.73a26.23,26.23,0,0,1,1,3.21l-1,.24c-.07-.32-.14-.63-.21-.91a43.83,43.83,0,0,1-5,.67l-.17-1.06c.94-.05,1.79-.12,2.56-.2V36.38H4.06V31.75Zm0,1H5.08v2.72H6.23Zm2.19,0H7.24v2.72H8.42Z" transform="translate(0 -6.4)"/><path class="cls-2" d="M16.39,38.54a29.16,29.16,0,0,0,1.69-5.36l1.11.29a30.68,30.68,0,0,1-1.6,5.07H21v1H11v-1Zm-.95-6.88c-.17-.53-.34-1-.53-1.46l1.21-.2c.15.48.32,1,.47,1.66h4v1H11.36v-1Zm-.25,6.39-1.12.29a40.86,40.86,0,0,0-1.25-4.8l1.1-.36A39.29,39.29,0,0,1,15.19,38.05Z" transform="translate(0 -6.4)"/><path class="cls-2" d="M26,39.45H25v-.57H23.29v.89h-1v-8h1A10.14,10.14,0,0,0,23.77,30l1,.14a8.9,8.9,0,0,1-.48,1.69H26Zm-1-4.64v-2H23.29v2Zm0,3.1V35.74H23.29v2.17Zm6.51.91C31.43,39.62,30.9,40,30,40c-.22,0-.62,0-1.17-.05l-.25-1c.48,0,.9,0,1.25,0a.7.7,0,0,0,.76-.69c.07-.55.1-2.4.12-5.53H27.92a9.91,9.91,0,0,1-1.08,1.82l-.63-.83a9.65,9.65,0,0,0,1.5-3.86l1,.13a12.81,12.81,0,0,1-.44,1.73h3.4Q31.7,37.5,31.54,38.82Zm-1.86-2-.83.58A20.64,20.64,0,0,0,27.16,35l.85-.53A18.32,18.32,0,0,1,29.68,36.8Z" transform="translate(0 -6.4)"/><path class="cls-2" d="M33.92,32.62,33,32.06a5.93,5.93,0,0,0,1.44-2.12l1,.22-.22.53H38v.91H36.43a6.9,6.9,0,0,1,.53.76L36,32.7a10,10,0,0,0-.71-1.1h-.57A8.14,8.14,0,0,1,33.92,32.62Zm0,1.14v-1h8.23v2.73h-3.6v.89h4A7.37,7.37,0,0,1,42.29,39c-.19.37-.6.56-1.27.57l-1.36,0-.25-1c.52,0,1,0,1.45,0s.5-.11.56-.32a4.66,4.66,0,0,0,.08-1H38.57v2.83h-1V37.5A9.12,9.12,0,0,1,33.67,40L33.09,39a9.17,9.17,0,0,0,3.41-1.69H33.62l.53-2.73h3.41v-.82Zm1.13,1.77-.22.89h2.71v-.89Zm3.61-2.9-.9-.56A6.17,6.17,0,0,0,39,29.93l1,.22c-.07.17-.12.33-.18.48H43v.91H41.17a7,7,0,0,1,.55.8l-.92.34a6.7,6.7,0,0,0-.73-1.14h-.66A7.49,7.49,0,0,1,38.68,32.63Zm2.42,2v-.82H38.57v.82Z" transform="translate(0 -6.4)"/><path class="cls-2" d="M54,38.57v1H44v-1Zm-.78-7.83v1H44.8v-1Zm-.75,3.77v1h-6.9v-1Z" transform="translate(0 -6.4)"/><path class="cls-2" d="M59.75,31.52A8.26,8.26,0,0,0,59,30.29l1-.36a8.64,8.64,0,0,1,.81,1.59H64.9v1H59.18l-.09,1.73h4.53a23.08,23.08,0,0,1-.31,4.46,1.64,1.64,0,0,1-1.66,1.35c-.35,0-.78,0-1.27-.06l-.31-.95c.58,0,1.08,0,1.47,0s.76-.35.89-1a26.75,26.75,0,0,0,.12-2.85H59a7.43,7.43,0,0,1-.81,2.33,9.42,9.42,0,0,1-2.27,2.61l-.76-.73a8.25,8.25,0,0,0,2.31-2.72,7.84,7.84,0,0,0,.64-2.81c0-.61,0-1.08.07-1.41h-3v-1Z" transform="translate(0 -6.4)"/><path class="cls-2" d="M68.93,35.2l-.19.52H71v.85a4.13,4.13,0,0,1-1.06,1.75c.45.2.89.42,1.31.64l-.56.81a14.21,14.21,0,0,0-1.55-.8A9.33,9.33,0,0,1,66.4,40.1l-.48-.86A9.49,9.49,0,0,0,68,38.49l-1.44-.57c.26-.46.51-.89.72-1.31H66.17v-.89h1.55c.09-.22.17-.44.23-.64ZM68.27,32V30h1v2h1.91v.91H69.22V33c.58.24,1.18.53,1.78.85l-.55.83c-.48-.38-.89-.69-1.23-.91V35h-1V33.11a5.21,5.21,0,0,1-1.81,2.08l-.52-.85a4.65,4.65,0,0,0,1.64-1.42H66.19V32Zm-.44-.53-.75.34a9.84,9.84,0,0,0-.72-1.41l.83-.28A9.42,9.42,0,0,1,67.83,31.49ZM70,36.61H68.34q-.23.46-.5.89c.39.13.76.26,1.12.42A3.87,3.87,0,0,0,70,36.61Zm1-6.13a7.9,7.9,0,0,1-.84,1.38l-.73-.37a7,7,0,0,0,.83-1.35Zm1.1,4.08a10.23,10.23,0,0,1-.55,1.1L71,34.85A14.29,14.29,0,0,0,72.23,30l1,.18c-.07.51-.13,1-.22,1.43h2.79v1h-.64a11.79,11.79,0,0,1-1,4.59,6.65,6.65,0,0,0,1.94,2.13l-.58.85a7.14,7.14,0,0,1-1.86-2,7.41,7.41,0,0,1-1.94,2l-.54-.87a6.12,6.12,0,0,0,1.95-2.12A15.51,15.51,0,0,1,72.18,34.57Zm.51-1.5a14.85,14.85,0,0,0,.95,3,11.49,11.49,0,0,0,.6-3.5H72.82Q72.75,32.84,72.69,33.07Z" transform="translate(0 -6.4)"/><path class="cls-2" d="M85,33v1a25.86,25.86,0,0,1-2.32,1.44V36h4.25v1H82.64V39c0,.69-.36,1-1.09,1H80.2l-.25-.95,1.25,0c.26,0,.4-.17.4-.48V37H77.09V36H81.6V35c.77-.41,1.38-.75,1.82-1H79V33Zm1.75.6H85.66V32H78.31v1.58H77.25V31h4.2a9.06,9.06,0,0,0-.48-1l1.2-.2A12.36,12.36,0,0,1,82.62,31h4.09Z" transform="translate(0 -6.4)"/><path class="cls-2" d="M90.85,32.95a10,10,0,0,1-2,1.56l-.69-.8a10.92,10.92,0,0,0,2.12-1.47Zm2.73,3.26a4.44,4.44,0,0,1-1,2.79c-.55.58-1.85,1-3.91,1.13l-.41-.95a6.36,6.36,0,0,0,3.41-.8,3.33,3.33,0,0,0,.86-2.27Zm-2.92-5.3-.56.85a8.15,8.15,0,0,0-1.78-.84l.52-.78A9.83,9.83,0,0,1,90.66,30.9Zm5.92,7.24H95.52V35.82H90.41v2.43h-1v-3.4h7.22Zm-3.36-8.08a5,5,0,0,1-.23.62h4.31v.63a12.41,12.41,0,0,1-.48,1.6l-1-.3a5.09,5.09,0,0,0,.42-1H94.63a4.77,4.77,0,0,1-.16.62,5.13,5.13,0,0,0,3.31,1.62l-.37.91A5.81,5.81,0,0,1,94,33a4.17,4.17,0,0,1-.34.42A5.71,5.71,0,0,1,91,34.69l-.39-.94a5.11,5.11,0,0,0,2.24-.91,2.6,2.6,0,0,0,.75-1.24h-1.2a5.43,5.43,0,0,1-1,1l-.62-.81a3.76,3.76,0,0,0,1.41-1.89Zm4.46,9.29-.57.87a21.43,21.43,0,0,0-3.85-1.36l.53-.79A25.32,25.32,0,0,1,97.68,39.35Z" transform="translate(0 -6.4)"/><path class="cls-2" d="M104.58,31h3.82v1h-1.85a8.07,8.07,0,0,1-.46,1.44h2.54v1h-7.81V36a7.32,7.32,0,0,1-1.18,4.15l-.8-.7A6,6,0,0,0,99.76,36v-2.5H102L101.6,32h-2V31h3.87a7.72,7.72,0,0,0-.48-1l1.1-.18C104.28,30.2,104.42,30.59,104.58,31Zm.51,2.43a8.14,8.14,0,0,0,.46-1.44h-2.93l.4,1.44Z" transform="translate(0 -6.4)"/><path class="cls-2" d="M114.18,30.73A12.65,12.65,0,0,1,112.66,33a13.2,13.2,0,0,1-2.17,1.89l-.57-.92a7.83,7.83,0,0,0,2-1.63,11,11,0,0,0,1.42-2.1Zm-2.67,4.53v-1h6.86a31.39,31.39,0,0,1-.23,3.43,3.7,3.7,0,0,1-.61,1.8,1.8,1.8,0,0,1-1.35.55h-2l-.27-1c.62,0,1.21,0,1.77,0a1.23,1.23,0,0,0,1.25-.7,11.4,11.4,0,0,0,.4-3.11H114.6A8.49,8.49,0,0,1,113.53,38a7.48,7.48,0,0,1-2.45,2.09l-.65-.84a6.73,6.73,0,0,0,2.17-1.72,6.39,6.39,0,0,0,1-2.32ZM120,34l-.71.81a8.7,8.7,0,0,1-3.45-4.22l.9-.51A7.41,7.41,0,0,0,120,34Z" transform="translate(0 -6.4)"/><path class="cls-2" d="M123.64,40.1h-1V34.87a13.31,13.31,0,0,1-1.32,2.72l-.45-1.14a9.5,9.5,0,0,0,1.71-3.4H121.1V32h1.52V30h1V32H125v1h-1.4v.5q.76.78,1.52,1.68l-.56.84c-.37-.57-.69-1-1-1.41Zm7-9.18a15.2,15.2,0,0,1-4.13.75v1.74h4.38v1h-1.54v5.7h-1.06v-5.7h-1.78a9.85,9.85,0,0,1-1.69,5.64l-.75-.78a8.34,8.34,0,0,0,1.44-4.87V30.78a14.78,14.78,0,0,0,4.61-.79Z" transform="translate(0 -6.4)"/><path class="cls-2" d="M141.47,30.4v1h-4v3.89h4.42v1h-4.42v3.81h-1.06V36.32h-4.33v-1h4.33V31.42h-3.89v-1Zm-6.26,4-1,.48a20.18,20.18,0,0,0-1.15-2.48l1-.47C134.45,32.69,134.84,33.5,135.21,34.4ZM141,32.34a14.11,14.11,0,0,1-1.24,2.49l-.95-.48A14.64,14.64,0,0,0,140,31.89Z" transform="translate(0 -6.4)"/><path class="cls-2" d="M143.31,33.46c.84-.19,2-1.36,3.47-3.52l1.09.37a19.87,19.87,0,0,1-2.72,3.1c1.87-.07,3.67-.19,5.42-.35-.35-.53-.71-1-1.08-1.47l.95-.45A32.25,32.25,0,0,1,153,34.78l-1,.51c-.26-.46-.52-.89-.77-1.3q-3.45.3-7.68.46Zm8.44,6.69h-1.06v-.45h-5.41v.45h-1.06V35.47h7.53Zm-1.06-1.45V36.47h-5.41v2.22Z" transform="translate(0 -6.4)"/></g></g></svg>